<svg width="96" height="134" viewBox="0 0 96 134" fill="none" xmlns="http://www.w3.org/2000/svg">
<path d="M0 129.872C0 131.823 1.58133 133.404 3.53201 133.404H83.2301C85.1808 133.404 86.7621 131.823 86.7621 129.872V66.702L96 12.415L87.8213 1.42354C87.1549 0.527853 86.1041 0 84.9877 0H0V66.702V129.872Z" fill="#86EFAC"/>
<path fill-rule="evenodd" clip-rule="evenodd" d="M96 12.415L86.7621 66.702V129.872C86.7621 131.823 85.1808 133.404 83.2301 133.404H3.53201C1.58133 133.404 0 131.823 0 129.872V0H84.9877C86.1041 0 87.1549 0.527853 87.8213 1.42354L96 12.415ZM92.1167 14.181L83.4798 64.936H6.20686L16.5447 14.181H92.1167ZM13.1595 13.1042L3.53201 60.3716V5.1897L13.1595 13.1042ZM7.07743 3.53201H84.9877L90.2834 10.649H15.7348L7.07743 3.53201ZM3.53201 68.468H83.2301L83.2301 129.872H3.53201L3.53201 68.468Z" fill="black"/>
<path fill-rule="evenodd" clip-rule="evenodd" d="M53.0479 21.9413C52.0865 21.7771 51.174 22.4234 51.0098 23.3848L46.2592 51.1994C46.095 52.1608 46.7412 53.0733 47.7027 53.2375C48.6641 53.4017 49.5766 52.7554 49.7408 51.794L54.4913 23.9794C54.6555 23.018 54.0093 22.1055 53.0479 21.9413Z" fill="black"/>
<path fill-rule="evenodd" clip-rule="evenodd" d="M43.426 88.1943C49.2098 88.1943 53.8985 92.8829 53.8985 98.6667C53.8985 104.45 49.2098 109.139 43.426 109.139C37.6423 109.139 32.9536 104.45 32.9536 98.6667C32.9536 92.8829 37.6423 88.1943 43.426 88.1943ZM43.426 84.6623C51.1605 84.6623 57.4305 90.9322 57.4305 98.6667C57.4305 106.401 51.1605 112.671 43.426 112.671C35.6916 112.671 29.4216 106.401 29.4216 98.6667C29.4216 90.9322 35.6916 84.6623 43.426 84.6623Z" fill="black"/>
</svg>
