<svg width="123" height="171" viewBox="0 0 123 171" fill="none" xmlns="http://www.w3.org/2000/svg">
<path d="M0 5C0 2.23858 2.23858 0 5 0H117.787C120.548 0 122.787 2.23858 122.787 5V165.965C122.787 168.726 120.548 170.965 117.787 170.965H5C2.23858 170.965 0 168.726 0 165.965V5Z" fill="#E2C6FF"/>
<path d="M22.7848 28.0961C22.7848 26.9905 23.6811 26.1155 24.7867 26.1155H97.9684C99.0741 26.1155 99.9704 27.0118 99.9704 28.1175V85.4661L108.189 133.77L100.571 144.01C100.193 144.517 99.6221 144.817 98.9893 144.817C92.0922 144.817 50.3645 144.817 22.7848 144.817C22.7848 121.639 22.7848 108.644 22.7848 85.4661C22.7848 65.5235 22.7848 35.9605 22.7848 28.0961Z" fill="url(#paint0_radial_14_316)"/>
<path d="M24.0229 140.636V101.598L29.0277 133.629L24.0229 140.636Z" fill="#9E85B9"/>
<path fill-rule="evenodd" clip-rule="evenodd" d="M65.5101 120.916C70.7336 120.916 74.9681 116.681 74.9681 111.458C74.9681 106.234 70.7336 102 65.5101 102C60.2865 102 56.052 106.234 56.052 111.458C56.052 116.681 60.2865 120.916 65.5101 120.916ZM65.5101 123.919C72.3921 123.919 77.971 118.34 77.971 111.458C77.971 104.576 72.3921 98.9967 65.5101 98.9967C58.6281 98.9967 53.0491 104.576 53.0491 111.458C53.0491 118.34 58.6281 123.919 65.5101 123.919Z" fill="black"/>
<path fill-rule="evenodd" clip-rule="evenodd" d="M61.3775 43.0612C62.2067 43.0612 62.8789 43.7335 62.8789 44.5627V69.4846C62.8789 70.3138 62.2067 70.986 61.3775 70.986C60.5483 70.986 59.876 70.3138 59.876 69.4846V44.5627C59.876 43.7335 60.5483 43.0612 61.3775 43.0612Z" fill="black"/>
<path d="M106.103 134.63L31.0304 135.131L25.0244 143.639H99.0961L106.103 134.63Z" fill="#9E85B9"/>
<path fill-rule="evenodd" clip-rule="evenodd" d="M21.2824 28.0964C21.2824 26.1406 22.8721 24.6143 24.7858 24.6143H97.9676C99.9024 24.6143 101.471 26.1828 101.471 28.1177V85.3395L109.776 134.151L101.775 144.906C101.126 145.778 100.116 146.318 98.9884 146.318H21.2824V28.0964ZM98.4681 83.9649V28.1177C98.4681 27.8413 98.244 27.6172 97.9676 27.6172H24.7858C24.4883 27.6172 24.2853 27.8409 24.2853 28.0964V83.9649H98.4681ZM24.2853 104.424V140.238C25.0961 139.091 25.8941 137.932 26.6066 136.882C27.3624 135.769 28.0176 134.785 28.4837 134.08C28.6517 133.826 28.795 133.608 28.9096 133.434L24.2853 104.424ZM31.7647 132.269H106.409L98.7019 86.9678H24.5436L31.7647 132.269ZM105.199 135.272H31.2951C31.2049 135.409 31.1023 135.564 30.9887 135.736C30.5175 136.449 29.8553 137.443 29.0912 138.569C28.0996 140.03 26.9285 141.724 25.7766 143.315H98.9884C99.1262 143.315 99.2584 143.257 99.3652 143.114L105.199 135.272Z" fill="black"/>
<defs>
<radialGradient id="paint0_radial_14_316" cx="0" cy="0" r="1" gradientUnits="userSpaceOnUse" gradientTransform="translate(61.3933 85.4824) rotate(90) scale(85.4824 61.3933)">
<stop stop-color="white"/>
<stop offset="1" stop-color="#D8B4FE"/>
</radialGradient>
</defs>
</svg>
