<svg width="123" height="171" viewBox="0 0 123 171" fill="none" xmlns="http://www.w3.org/2000/svg">
<path d="M0 166C0 168.762 2.23858 171 5 171H117.812C120.574 171 122.812 168.762 122.812 166V4.99999C122.812 2.23857 120.574 0 117.812 0H4.99999C2.23857 0 0 2.23858 0 5V166Z" fill="#A3EFBF"/>
<path d="M22.7893 142.898C22.7893 144.003 23.6858 144.879 24.7917 144.879H97.9886C99.0944 144.879 99.9909 143.982 99.9909 142.876V85.5157L108.211 37.2018L100.591 26.96C100.214 26.4521 99.6426 26.1528 99.0096 26.1528C92.1111 26.1528 50.3747 26.1528 22.7893 26.1528C22.7893 49.3355 22.7893 62.3331 22.7893 85.5157C22.7893 105.462 22.7893 135.032 22.7893 142.898Z" fill="#86EFAC"/>
<path d="M24.0279 30.3347V69.3806L29.0338 37.343L24.0279 30.3347Z" fill="#54966C"/>
<path fill-rule="evenodd" clip-rule="evenodd" d="M61.5211 105.025C66.7458 105.025 70.9811 109.26 70.9811 114.485C70.9811 119.709 66.7458 123.945 61.5211 123.945C56.2965 123.945 52.0611 119.709 52.0611 114.485C52.0611 109.26 56.2965 105.025 61.5211 105.025ZM61.5211 102.021C68.4046 102.021 73.9847 107.601 73.9847 114.485C73.9847 121.368 68.4046 126.948 61.5211 126.948C54.6377 126.948 49.0576 121.368 49.0576 114.485C49.0576 107.601 54.6377 102.021 61.5211 102.021Z" fill="black"/>
<path fill-rule="evenodd" clip-rule="evenodd" d="M63.5525 73.6308C64.3698 73.7722 65.1469 73.2243 65.2883 72.407L69.5378 47.8449C69.6792 47.0276 69.1313 46.2505 68.3141 46.1091C67.4968 45.9677 66.7197 46.5156 66.5783 47.3328L62.3288 71.895C62.1874 72.7122 62.7353 73.4894 63.5525 73.6308Z" fill="black"/>
<path d="M106.125 36.3423L31.0369 35.8417L25.0297 27.3317H99.1166L106.125 36.3423Z" fill="#54966C"/>
<path fill-rule="evenodd" clip-rule="evenodd" d="M21.2872 142.898C21.2872 144.854 22.8772 146.381 24.7913 146.381H97.9882C99.9235 146.381 101.492 144.812 101.492 142.877V85.6429L109.799 36.821L101.796 26.0639C101.147 25.1918 100.137 24.6514 99.0093 24.6514H21.2872V142.898ZM98.4888 87.0178V142.877C98.4888 143.153 98.2647 143.377 97.9882 143.377H24.7913C24.4938 143.377 24.2908 143.153 24.2908 142.898V87.0178H98.4888ZM24.2908 66.5546V30.733C25.1017 31.88 25.8998 33.0394 26.6125 34.0894C27.3684 35.203 28.0238 36.1868 28.49 36.892C28.658 37.1462 28.8013 37.364 28.9159 37.5386L24.2908 66.5546ZM31.7716 38.7039H106.432L98.7228 84.0143H24.5491L31.7716 38.7039ZM105.222 35.7004H31.302C31.2117 35.5632 31.1091 35.4076 30.9955 35.2357C30.5242 34.5227 29.8619 33.5284 29.0976 32.4025C28.1058 30.9414 26.9345 29.2472 25.7823 27.6549H99.0093C99.1472 27.6549 99.2794 27.7131 99.3862 27.8567L105.222 35.7004Z" fill="black"/>
</svg>
