<svg width="96" height="134" viewBox="0 0 96 134" fill="none" xmlns="http://www.w3.org/2000/svg">
<path d="M0 3.53266C0 1.58162 1.58163 0 3.53266 0H83.2294C85.1805 0 86.7621 1.58163 86.7621 3.53266V66.7143L96 121.011L87.8215 132.004C87.1549 132.9 86.1039 133.429 84.9872 133.429H0V66.7143V3.53266Z" fill="#86EFAC"/>
<path fill-rule="evenodd" clip-rule="evenodd" d="M96 121.011L86.7621 66.7143V3.53266C86.7621 1.58163 85.1805 0 83.2294 0H3.53266C1.58163 0 0 1.58162 0 3.53266V133.429H84.9872C86.1039 133.429 87.1549 132.9 87.8215 132.004L96 121.011ZM92.1161 119.245L83.4792 68.4806H6.20718L16.545 119.245H92.1161ZM13.1592 120.322L3.53266 73.0506V128.237L13.1592 120.322ZM7.07764 129.896H84.9872L90.2829 122.778H15.735L7.07764 129.896ZM3.53266 64.9479H83.2294V3.53266H3.53266V64.9479Z" fill="black"/>
<path fill-rule="evenodd" clip-rule="evenodd" d="M48.0265 106.404C53.8113 106.404 58.5008 101.714 58.5008 95.9293C58.5008 90.1445 53.8113 85.455 48.0265 85.455C42.2417 85.455 37.5522 90.1445 37.5522 95.9293C37.5522 101.714 42.2417 106.404 48.0265 106.404ZM48.0265 109.936C55.7623 109.936 62.0335 103.665 62.0335 95.9293C62.0335 88.1935 55.7623 81.9223 48.0265 81.9223C40.2906 81.9223 34.0195 88.1935 34.0195 95.9293C34.0195 103.665 40.2906 109.936 48.0265 109.936Z" fill="black"/>
<path fill-rule="evenodd" clip-rule="evenodd" d="M43.3811 18.9704C44.3566 18.9704 45.1474 19.7612 45.1474 20.7367V48.7507C45.1474 49.7262 44.3566 50.517 43.3811 50.517C42.4055 50.517 41.6147 49.7262 41.6147 48.7507V20.7367C41.6147 19.7612 42.4055 18.9704 43.3811 18.9704Z" fill="black"/>
</svg>
