<svg width="6132" height="2532" viewBox="0 0 6132 2532" fill="none" xmlns="http://www.w3.org/2000/svg">
<path d="M5141.9 1265.01C5141.9 1265.01 5064.69 1370.23 4927.31 1520.01C4588.07 1889.88 3881.98 2531.51 3065.9 2531.51C1919.36 2531.51 989.904 1265.01 989.904 1265.01C989.904 1265.01 1208.48 967.165 1564.4 660.354C1785.79 469.516 2060.3 275.208 2368.4 146.947C2681.77 16.4948 3022.78 -35.4748 3357.9 25.2629C3830.96 110.999 4252.83 389.179 4567.4 660.354C4923.32 967.165 5141.9 1265.01 5141.9 1265.01Z" fill="#E15151"/>
<path d="M338.403 2220.51C-74.9409 1956.36 19.8255 1760.27 166.404 1265.51C-10.0507 803.891 -158.002 588.916 338.404 310.509C338.404 310.509 920.904 738.077 920.904 1265.51C920.903 1792.94 338.403 2220.51 338.403 2220.51Z" fill="#E15151"/>
<path d="M5793.46 2220.51C6206.85 1956.36 6112.08 1760.27 5965.48 1265.51C6141.96 803.891 6289.92 588.916 5793.46 310.509C5793.46 310.509 5210.9 738.077 5210.9 1265.51C5210.9 1792.94 5793.46 2220.51 5793.46 2220.51Z" fill="#E15151"/>
<path fill-rule="evenodd" clip-rule="evenodd" d="M1564.4 660.354C1523.66 695.479 1484.71 730.486 1447.68 764.943C1347.87 857.832 1262.02 946.717 1192.53 1023.11C1062.65 1165.89 989.904 1265.01 989.904 1265.01C989.904 1265.01 990.027 1265.18 990.272 1265.51C995.991 1273.25 1068.06 1370.1 1192.72 1507.12C1394.93 1729.37 1735.49 2057.28 2155.64 2281.88C2224.51 2318.69 2295.52 2352.73 2368.4 2383.07C2586.4 2473.82 2821.21 2531.51 3065.9 2531.51C3112.28 2531.51 3158.3 2529.44 3203.92 2525.46C3255.79 2520.94 3307.14 2513.95 3357.9 2504.75C3685.5 2445.38 3988.54 2293.72 4248.4 2116.01C4291.22 2086.73 4332.86 2056.74 4373.25 2026.34C4604.17 1852.54 4794.04 1665.31 4927.31 1520.01C4931.29 1515.67 4935.21 1511.37 4939.09 1507.11C4976.88 1465.58 5009.83 1427.74 5037.57 1394.95C5101.34 1319.57 5137.55 1270.9 5141.53 1265.51C5141.78 1265.18 5141.9 1265.01 5141.9 1265.01C5141.9 1265.01 5069.16 1165.89 4939.27 1023.11C4908.06 988.796 4873.55 951.962 4835.95 913.377C4758.8 834.196 4668.66 747.638 4567.4 660.354C4293.58 424.314 3938.48 182.966 3539.08 67.8463C3479.63 50.7104 3419.2 36.3713 3357.9 25.2629C3072.29 -26.5002 2782.41 3.59752 2509.01 94.371C2461.61 110.109 2414.71 127.671 2368.4 146.947C2364.4 148.615 2360.39 150.294 2356.4 151.985C2314.21 169.834 2272.65 188.911 2231.79 209.038C1978.96 333.554 1752.5 498.207 1564.4 660.354ZM2348.12 486.235C2153.8 583.915 1973.32 710.184 1814.57 841.697L2383.76 2061.3C2600.43 2165.33 2831.09 2231.51 3065.9 2231.51C3070.78 2231.51 3075.65 2231.48 3080.52 2231.42L2348.12 486.235ZM3389.16 2191.6C3601.78 2140.21 3808.29 2042.67 4001.66 1919.49L3322 323.755C3316.14 322.618 3310.27 321.518 3304.4 320.454C3081.9 280.128 2850.69 300.601 2625.51 371.953L3389.16 2191.6ZM3700.38 446.543L4251.81 1741.22C4427.53 1602.67 4576.24 1457.21 4688.04 1336.92L4581.66 1082.83C4519.16 1020.41 4448.76 954.16 4371.53 887.581C4175.95 718.986 3947.22 557.61 3700.38 446.543ZM1916.59 1769.66L1581.56 1051.8C1501.58 1129.95 1433.26 1203.19 1378.53 1265.01C1476.48 1375.66 1617.76 1522.62 1791.28 1668.86C1831.88 1703.08 1873.68 1736.78 1916.59 1769.66ZM5275.98 952.428C5242.5 1034.74 5219.38 1122.17 5212.81 1212.97C5211.55 1230.36 5210.9 1247.88 5210.9 1265.51C5210.9 1282.78 5211.53 1299.95 5212.74 1316.99C5219.18 1407.92 5242.24 1495.48 5275.71 1577.92C5427.52 1951.93 5793.46 2220.51 5793.46 2220.51C6178.97 1974.17 6122.55 1787.03 5994.29 1361.65C5985.02 1330.88 5975.37 1298.88 5965.48 1265.51C5982.02 1222.26 5998.3 1181.18 6013.82 1142.01L6013.84 1141.96L6013.85 1141.95C6164.03 763.033 6243.39 562.82 5793.46 310.509C5793.46 310.509 5427.96 578.767 5275.98 952.428ZM5814.42 692.675C5787.68 719.902 5759.56 750.357 5731.59 783.545C5603.15 935.959 5512.72 1104.53 5510.93 1260.8L5514.02 1265.01L5510.92 1269.23C5512.34 1425.78 5602.88 1594.74 5731.59 1747.47C5751.22 1770.76 5770.92 1792.71 5790.17 1813.14C5790.18 1812.34 5790.16 1811.65 5790.14 1811.05C5790.13 1810.37 5790.11 1809.83 5790.14 1809.4C5791.82 1784.31 5788.08 1741.18 5767.55 1659.13C5752.58 1599.29 5733.26 1535.19 5709.13 1455.17C5699.48 1423.16 5689.06 1388.59 5677.84 1350.73L5648.97 1253.3L5685.26 1158.38C5705.3 1105.97 5722.9 1061.64 5738.69 1021.89C5762.27 962.524 5781.81 913.348 5799.35 862.624C5827.02 782.634 5832.28 744.418 5831.89 725.471C5831.88 725.026 5831.87 724.594 5831.87 724.17C5831.8 718.227 5831.75 713.944 5820.29 699.611C5818.57 697.456 5816.62 695.143 5814.42 692.675ZM5971.67 1979.17C5971.77 1979.25 5971.73 1979.22 5971.57 1979.1L5971.67 1979.17ZM856.106 1577.92C889.565 1495.49 912.623 1407.93 919.07 1317C919.07 1316.99 919.07 1316.99 919.07 1316.99C920.279 1299.95 920.904 1282.78 920.904 1265.51C920.904 1247.88 920.253 1230.36 918.995 1212.97C918.995 1212.97 918.995 1212.97 918.995 1212.97C912.427 1122.17 889.31 1034.74 855.832 952.422C703.863 578.764 338.404 310.509 338.404 310.509C-111.473 562.82 -32.1254 763.033 118.043 1141.95C133.575 1181.14 149.864 1222.24 166.404 1265.51C156.519 1298.87 146.871 1330.88 137.598 1361.63L137.595 1361.65C9.35431 1787.03 -47.0649 1974.17 338.403 2220.51C338.403 2220.51 704.303 1951.93 856.106 1577.92ZM341.728 1813.08C341.723 1812.31 341.741 1811.64 341.756 1811.06C341.774 1810.38 341.788 1809.83 341.76 1809.4C340.076 1784.31 343.816 1741.17 364.345 1659.12C379.314 1599.28 398.637 1535.18 422.76 1455.16C432.411 1423.15 442.83 1388.58 454.046 1350.73L482.908 1253.3L446.629 1158.39C426.592 1105.97 408.989 1061.65 393.201 1021.9C369.624 962.531 350.094 913.356 332.55 862.633C304.883 782.643 299.628 744.423 300.018 725.47C300.027 725.026 300.032 724.594 300.037 724.171C300.105 718.219 300.153 713.934 311.614 699.599C313.328 697.455 315.266 695.154 317.451 692.699C344.181 719.917 372.286 750.359 400.24 783.533C528.667 935.944 619.088 1104.52 620.876 1260.8L617.785 1265.01L620.887 1269.23C619.469 1425.79 528.937 1594.75 400.24 1747.48C380.635 1770.75 360.956 1792.67 341.728 1813.08Z" fill="white"/>
</svg>
