<svg width="2563" height="2563" viewBox="0 0 2563 2563" fill="none" xmlns="http://www.w3.org/2000/svg">
<path d="M1214.05 999.786C1222.13 1025.5 1212.93 1033.17 1189.18 1043.36C1175.73 1026.7 1164.45 1020.56 1154.18 1014.96C1144.01 1009.43 1134.84 1004.43 1125.57 990.309C1112.24 970.005 1114.26 963.592 1119.95 951.452C1122.21 946.62 1125.06 940.882 1127.75 933C1130.17 938.713 1133.67 943.473 1137.91 947.56C1147.48 956.806 1160.78 962.61 1173.67 968.236C1191.72 976.115 1208.97 983.643 1214.05 999.786Z" fill="#1C1C13"/>
<path d="M1164.98 1493.28C1173.06 1518.99 1163.86 1526.66 1140.11 1536.86C1126.66 1520.2 1115.38 1514.05 1105.11 1508.46C1094.94 1502.92 1085.78 1497.93 1076.5 1483.8C1062.01 1461.73 1066.19 1452.08 1073.21 1435.85C1075.22 1431.21 1077.45 1426.04 1079.56 1419.89C1087.41 1438.46 1106.51 1448.64 1124.82 1458.39C1142.73 1467.94 1159.89 1477.08 1164.98 1493.28Z" fill="#1C1C13"/>
<path d="M1154 1560.34C1162.09 1586.05 1152.88 1593.72 1129.13 1603.92C1115.69 1587.26 1104.4 1581.11 1094.13 1575.52C1083.97 1569.98 1074.8 1564.99 1065.53 1550.86C1051.03 1528.78 1055.21 1519.14 1062.23 1502.91C1064.24 1498.27 1066.48 1493.1 1068.58 1486.95C1076.44 1505.52 1095.53 1515.7 1113.84 1525.45C1131.75 1534.99 1148.91 1544.13 1154 1560.34Z" fill="#1C1C13"/>
<path d="M1194.99 1213.13C1203.09 1238.72 1193.89 1246.35 1170.14 1256.48C1156.69 1239.89 1145.4 1233.77 1135.13 1228.2C1124.96 1222.69 1115.79 1217.71 1106.51 1203.65C1092.01 1181.68 1096.18 1172.08 1103.19 1155.94C1105.2 1151.33 1107.43 1146.18 1109.53 1140.06C1117.4 1158.54 1136.5 1168.68 1154.81 1178.39C1172.73 1187.9 1189.89 1197 1194.99 1213.13Z" fill="#1C1C13"/>
<path d="M1184.05 1279.85C1192.14 1305.43 1182.95 1313.06 1159.2 1323.19C1145.75 1306.61 1134.46 1300.49 1124.19 1294.92C1114.02 1289.4 1104.85 1284.43 1095.57 1270.37C1081.07 1248.39 1085.24 1238.8 1092.25 1222.65C1094.25 1218.04 1096.49 1212.9 1098.59 1206.78C1106.46 1225.26 1125.56 1235.4 1143.87 1245.11C1161.79 1254.62 1178.94 1263.72 1184.05 1279.85Z" fill="#1C1C13"/>
<path d="M1129.73 1773.13C1137.83 1798.71 1133.84 1806.9 1110.1 1817.03C1096.65 1800.45 1085.36 1794.32 1075.09 1788.76C1064.92 1783.24 1055.75 1778.27 1046.47 1764.21C1031.96 1742.23 1036.13 1732.63 1043.15 1716.49C1045.15 1711.88 1047.39 1706.74 1049.49 1700.62C1057.34 1719.07 1075.08 1729.06 1092.04 1738.62C1108.7 1748.01 1124.62 1756.98 1129.73 1773.13Z" fill="#1C1C13"/>
<path d="M1115.37 1839.48C1123.46 1865.06 1122.9 1873.62 1099.16 1883.75C1085.77 1867.24 1075.46 1861.2 1066.17 1855.75C1056.88 1850.31 1048.6 1845.45 1039.28 1831.33C1025.19 1809.97 1028.44 1802.95 1034.95 1788.91C1037.05 1784.37 1039.49 1779.1 1041.8 1772.37C1049.66 1790.84 1065.73 1799.46 1081.03 1807.66C1096.01 1815.7 1110.26 1823.34 1115.37 1839.48Z" fill="#1C1C13"/>
<path d="M1210.04 1072.64C1218.12 1098.35 1208.92 1106.02 1185.17 1116.22C1171.72 1099.56 1160.44 1093.41 1150.17 1087.82C1140 1082.28 1130.84 1077.29 1121.56 1063.17C1107.07 1041.09 1111.24 1031.44 1118.27 1015.21C1120.27 1010.58 1122.51 1005.4 1124.61 999.253C1132.47 1017.82 1151.57 1028 1169.87 1037.75C1187.79 1047.3 1204.94 1056.44 1210.04 1072.64Z" fill="#1C1C13"/>
<path d="M1199.06 1139.7C1207.14 1165.41 1197.94 1173.08 1174.19 1183.28C1160.74 1166.62 1149.46 1160.47 1139.19 1154.88C1129.02 1149.34 1119.86 1144.35 1110.58 1130.22C1096.09 1108.14 1100.27 1098.5 1107.29 1082.27C1109.29 1077.63 1111.53 1072.46 1113.64 1066.31C1121.49 1084.88 1140.59 1095.06 1158.9 1104.81C1176.81 1114.35 1193.97 1123.49 1199.06 1139.7Z" fill="#1C1C13"/>
<path d="M1149.99 1633.2C1158.08 1658.91 1148.87 1666.58 1125.12 1676.77C1111.68 1660.11 1100.39 1653.97 1090.13 1648.37C1079.96 1642.84 1070.79 1637.84 1061.52 1623.72C1047.02 1601.64 1051.2 1591.99 1058.22 1575.76C1060.23 1571.13 1062.47 1565.96 1064.57 1559.81C1072.43 1578.38 1091.53 1588.55 1109.83 1598.3C1127.75 1607.85 1144.9 1616.99 1149.99 1633.2Z" fill="#1C1C13"/>
<path d="M1139.01 1700.25C1147.1 1725.97 1137.89 1733.64 1114.14 1743.83C1100.7 1727.17 1089.41 1721.02 1079.15 1715.43C1068.98 1709.89 1059.81 1704.9 1050.54 1690.78C1036.04 1668.7 1040.22 1659.05 1047.24 1642.82C1049.25 1638.19 1051.49 1633.02 1053.59 1626.87C1061.45 1645.43 1080.55 1655.61 1098.85 1665.36C1116.77 1674.91 1133.92 1684.05 1139.01 1700.25Z" fill="#1C1C13"/>
<path d="M1179.97 1353.37C1188.05 1379.08 1178.85 1386.75 1155.1 1396.94C1141.65 1380.28 1130.37 1374.14 1120.1 1368.55C1109.93 1363.01 1100.76 1358.02 1091.49 1343.89C1077 1321.81 1081.17 1312.16 1088.2 1295.94C1090.2 1291.3 1092.44 1286.13 1094.54 1279.98C1102.4 1298.55 1121.5 1308.72 1139.8 1318.48C1157.72 1328.02 1174.87 1337.16 1179.97 1353.37Z" fill="#1C1C13"/>
<path d="M1168.99 1420.43C1177.07 1446.14 1167.87 1453.81 1144.12 1464C1130.67 1447.34 1119.39 1441.2 1109.12 1435.6C1098.95 1430.07 1089.79 1425.07 1080.51 1410.95C1066.02 1388.87 1070.19 1379.22 1077.22 1362.99C1079.22 1358.36 1081.46 1353.19 1083.56 1347.04C1091.42 1365.6 1110.52 1375.78 1128.82 1385.53C1146.74 1395.08 1163.89 1404.22 1168.99 1420.43Z" fill="#1C1C13"/>
<path d="M1105.16 1909.34C1112.55 1932.82 1108.7 1938.25 1098.2 1953.03C1097.21 1954.43 1096.16 1955.91 1095.05 1957.5C1081.54 1940.77 1071.21 1935.6 1061.89 1930.93C1052.74 1926.36 1044.57 1922.27 1035.34 1908.21C1019.82 1884.57 1023.8 1874.23 1031.03 1855.45C1032.49 1851.68 1034.07 1847.56 1035.65 1842.92C1043.5 1861.47 1058.51 1869.87 1072.78 1877.85C1086.78 1885.68 1100.06 1893.11 1105.16 1909.34Z" fill="#1C1C13"/>
<path d="M1092.62 1980.11C1095.99 2002.35 1092.89 2008.12 1086.17 2020.62C1085.5 2021.86 1084.8 2023.16 1084.07 2024.56C1070.58 2007.85 1060.35 2002.72 1051.78 1998.43C1043.35 1994.21 1036.53 1990.79 1029.81 1977.92C1018.51 1956.28 1021.26 1947.82 1027.44 1928.78C1028.67 1924.99 1030.04 1920.77 1031.46 1915.96C1039.03 1933.85 1052.51 1941.47 1064.94 1948.51C1078.04 1955.93 1089.98 1962.69 1092.62 1980.11Z" fill="#1C1C13"/>
<path d="M1081.58 2036.84C1091.25 2053.14 1082.42 2064.49 1072.34 2077.45C1065.25 2086.56 1057.54 2096.47 1055.21 2109.46C1054.42 2097.97 1054.92 2090.59 1055.33 2084.46C1056.06 2073.52 1056.53 2066.51 1049.02 2047.11C1044.33 2034.98 1040.14 2028.8 1036.66 2023.66C1031.46 2015.97 1027.84 2010.62 1026.45 1991.17C1034.47 1996.97 1041.33 2001.14 1047.39 2004.84C1061.38 2013.36 1071.2 2019.35 1081.58 2036.84Z" fill="#1C1C13"/>
<path d="M1301.18 999.786C1293.1 1025.5 1302.3 1033.17 1326.05 1043.36C1339.5 1026.7 1350.78 1020.56 1361.05 1014.96C1371.22 1009.43 1380.38 1004.43 1389.66 990.309C1402.03 971.458 1402.14 967.007 1398.05 958.034C1395.98 953.495 1392.84 947.8 1389.66 938.5C1387.07 944.624 1383.17 949.5 1378.42 953.524C1368.67 961.786 1355.35 966.459 1342.45 970.989C1323.92 977.491 1306.24 983.696 1301.18 999.786Z" fill="#1C1C13"/>
<path d="M1350.25 1493.28C1342.17 1518.99 1351.37 1526.66 1375.12 1536.86C1388.56 1520.2 1399.85 1514.05 1410.12 1508.46C1420.28 1502.92 1429.45 1497.93 1438.72 1483.8C1453.22 1461.73 1449.04 1452.08 1442.02 1435.85C1440.01 1431.21 1437.77 1426.04 1435.67 1419.89C1427.81 1438.46 1408.72 1448.64 1390.41 1458.39C1372.5 1467.94 1355.34 1477.08 1350.25 1493.28Z" fill="#1C1C13"/>
<path d="M1361.23 1560.34C1353.14 1586.05 1362.35 1593.72 1386.1 1603.92C1399.54 1587.26 1410.83 1581.11 1421.09 1575.52C1431.26 1569.98 1440.43 1564.99 1449.7 1550.86C1464.2 1528.78 1460.02 1519.14 1453 1502.91C1450.99 1498.27 1448.75 1493.1 1446.65 1486.95C1438.79 1505.52 1419.69 1515.7 1401.39 1525.45C1383.47 1534.99 1366.32 1544.13 1361.23 1560.34Z" fill="#1C1C13"/>
<path d="M1320.24 1213.13C1312.14 1238.72 1321.34 1246.35 1345.09 1256.48C1358.54 1239.89 1369.83 1233.77 1380.09 1228.2C1390.27 1222.69 1399.44 1217.71 1408.71 1203.65C1423.22 1181.68 1419.05 1172.08 1412.04 1155.94C1410.03 1151.33 1407.8 1146.18 1405.7 1140.06C1397.83 1158.54 1378.73 1168.68 1360.42 1178.39C1342.5 1187.9 1325.34 1197 1320.24 1213.13Z" fill="#1C1C13"/>
<path d="M1331.18 1279.85C1323.08 1305.43 1332.28 1313.06 1356.03 1323.19C1369.48 1306.61 1380.77 1300.49 1391.04 1294.92C1401.21 1289.4 1410.38 1284.43 1419.66 1270.37C1434.16 1248.39 1429.99 1238.8 1422.98 1222.65C1420.97 1218.04 1418.74 1212.9 1416.64 1206.78C1408.77 1225.26 1389.67 1235.4 1371.36 1245.11C1353.44 1254.62 1336.28 1263.72 1331.18 1279.85Z" fill="#1C1C13"/>
<path d="M1385.5 1773.13C1377.4 1798.71 1381.39 1806.9 1405.13 1817.03C1418.58 1800.45 1429.87 1794.32 1440.14 1788.76C1450.31 1783.24 1459.48 1778.27 1468.76 1764.21C1483.26 1742.23 1479.09 1732.63 1472.08 1716.49C1470.08 1711.88 1467.84 1706.74 1465.74 1700.62C1457.89 1719.07 1440.15 1729.06 1423.19 1738.62C1406.53 1748.01 1390.61 1756.98 1385.5 1773.13Z" fill="#1C1C13"/>
<path d="M1399.86 1839.48C1391.76 1865.06 1392.33 1873.62 1416.07 1883.75C1429.46 1867.24 1439.77 1861.2 1449.06 1855.75C1458.35 1850.31 1466.62 1845.45 1475.95 1831.33C1490.04 1809.97 1486.79 1802.95 1480.28 1788.91C1478.18 1784.37 1475.74 1779.1 1473.43 1772.37C1465.56 1790.84 1449.5 1799.46 1434.2 1807.66C1419.22 1815.7 1404.96 1823.34 1399.86 1839.48Z" fill="#1C1C13"/>
<path d="M1305.19 1072.64C1297.11 1098.35 1306.31 1106.02 1330.06 1116.22C1343.51 1099.56 1354.79 1093.41 1365.06 1087.82C1375.23 1082.28 1384.39 1077.29 1393.67 1063.16C1408.16 1041.09 1403.98 1031.44 1396.96 1015.21C1394.96 1010.58 1392.72 1005.4 1390.62 999.253C1382.76 1017.82 1363.66 1028 1345.35 1037.75C1327.44 1047.3 1310.29 1056.44 1305.19 1072.64Z" fill="#1C1C13"/>
<path d="M1316.17 1139.7C1308.09 1165.41 1317.29 1173.08 1341.04 1183.28C1354.48 1166.62 1365.77 1160.47 1376.04 1154.88C1386.2 1149.34 1395.37 1144.35 1404.64 1130.22C1419.14 1108.14 1414.96 1098.5 1407.94 1082.27C1405.93 1077.63 1403.7 1072.46 1401.59 1066.31C1393.74 1084.88 1374.64 1095.06 1356.33 1104.81C1338.42 1114.35 1321.26 1123.49 1316.17 1139.7Z" fill="#1C1C13"/>
<path d="M1365.24 1633.2C1357.15 1658.91 1366.36 1666.58 1390.11 1676.77C1403.55 1660.11 1414.84 1653.97 1425.1 1648.37C1435.27 1642.84 1444.44 1637.84 1453.71 1623.72C1468.21 1601.64 1464.03 1591.99 1457.01 1575.76C1455 1571.13 1452.76 1565.96 1450.66 1559.81C1442.8 1578.38 1423.7 1588.55 1405.4 1598.3C1387.48 1607.85 1370.33 1616.99 1365.24 1633.2Z" fill="#1C1C13"/>
<path d="M1376.21 1700.25C1368.13 1725.97 1377.33 1733.64 1401.09 1743.83C1414.53 1727.17 1425.82 1721.02 1436.08 1715.43C1446.25 1709.89 1455.42 1704.9 1464.69 1690.78C1479.18 1668.7 1475.01 1659.05 1467.98 1642.82C1465.98 1638.19 1463.74 1633.02 1461.64 1626.87C1453.78 1645.43 1434.68 1655.61 1416.38 1665.36C1398.46 1674.91 1381.31 1684.05 1376.21 1700.25Z" fill="#1C1C13"/>
<path d="M1335.26 1353.37C1327.18 1379.08 1336.38 1386.75 1360.13 1396.94C1373.58 1380.28 1384.86 1374.14 1395.13 1368.55C1405.3 1363.01 1414.46 1358.02 1423.74 1343.89C1438.23 1321.81 1434.06 1312.16 1427.03 1295.94C1425.03 1291.3 1422.79 1286.13 1420.69 1279.98C1412.83 1298.55 1393.73 1308.72 1375.43 1318.48C1357.51 1328.02 1340.36 1337.16 1335.26 1353.37Z" fill="#1C1C13"/>
<path d="M1346.24 1420.43C1338.16 1446.14 1347.36 1453.81 1371.11 1464C1384.56 1447.34 1395.84 1441.2 1406.11 1435.6C1416.28 1430.07 1425.44 1425.07 1434.71 1410.95C1449.21 1388.87 1445.03 1379.22 1438.01 1362.99C1436 1358.36 1433.77 1353.19 1431.66 1347.04C1423.81 1365.6 1404.71 1375.78 1386.4 1385.53C1368.49 1395.08 1351.33 1404.22 1346.24 1420.43Z" fill="#1C1C13"/>
<path d="M1410.06 1909.34C1402.68 1932.82 1406.53 1938.25 1417.03 1953.03C1418.02 1954.43 1419.07 1955.91 1420.18 1957.5C1433.68 1940.77 1444.02 1935.6 1453.34 1930.93C1462.49 1926.36 1470.66 1922.27 1479.89 1908.21C1495.4 1884.57 1491.42 1874.23 1484.2 1855.45C1482.74 1851.68 1481.16 1847.56 1479.57 1842.92C1471.72 1861.47 1456.71 1869.87 1442.45 1877.85C1428.45 1885.68 1415.16 1893.11 1410.06 1909.34Z" fill="#1C1C13"/>
<path d="M1422.6 1980.11C1419.24 2002.35 1422.34 2008.12 1429.06 2020.62C1429.72 2021.86 1430.43 2023.16 1431.16 2024.56C1444.64 2007.85 1454.88 2002.72 1463.44 1998.43C1471.88 1994.21 1478.7 1990.79 1485.42 1977.92C1496.71 1956.28 1493.97 1947.82 1487.79 1928.78C1486.56 1924.99 1485.19 1920.77 1483.77 1915.96C1476.2 1933.85 1462.72 1941.47 1450.29 1948.51C1437.19 1955.93 1425.24 1962.69 1422.6 1980.11Z" fill="#1C1C13"/>
<path d="M1433.65 2036.84C1423.98 2053.14 1432.81 2064.49 1442.89 2077.45C1449.98 2086.56 1457.69 2096.47 1460.02 2109.46C1460.8 2097.97 1460.31 2090.59 1459.9 2084.46C1459.17 2073.52 1458.7 2066.51 1466.2 2047.11C1470.9 2034.98 1475.08 2028.8 1478.56 2023.66C1483.77 2015.97 1487.39 2010.62 1488.78 1991.17C1480.75 1996.97 1473.9 2001.14 1467.84 2004.84C1453.85 2013.36 1444.03 2019.35 1433.65 2036.84Z" fill="#1C1C13"/>
<path d="M1234.25 920.5C1237.32 927.523 1239.13 933.67 1239.71 939.166C1241.38 955.101 1232.68 965.558 1214.1 976C1197.16 959.068 1184.04 954.83 1172.11 950.975C1166.55 949.178 1161.25 947.465 1155.94 944.588C1150.17 941.464 1144.39 936.967 1138.25 929.5C1174.28 929.5 1198.35 920.5 1234.25 920.5Z" fill="#1C1C13"/>
<path d="M1293.41 920C1289.91 928.01 1288.05 934.88 1287.79 940.944C1287.15 955.615 1295.88 965.564 1313.56 975.5C1330.51 958.568 1343.62 954.33 1355.55 950.475C1356.45 950.184 1357.35 949.895 1358.23 949.602C1368.78 946.134 1378.54 942.227 1389.41 929C1353.38 929 1329.32 920 1293.41 920Z" fill="#1C1C13"/>
<path fill-rule="evenodd" clip-rule="evenodd" d="M2563 1281.5C2563 1989.25 1989.25 2563 1281.5 2563C573.747 2563 0 1989.25 0 1281.5C0 573.747 573.747 0 1281.5 0C1989.25 0 2563 573.747 2563 1281.5ZM1584.03 625.06C1653.53 678.423 1788.71 929.227 1737.13 952.35C1698.09 969.849 1572.43 951.471 1456.08 934.455L1456.08 934.454L1456.07 934.454C1381.56 923.557 1310.87 913.218 1269.19 913.218C1239.03 913.218 1204.23 917.304 1163.25 922.116C1077.42 932.194 964.502 945.453 810.397 931.005C760.643 881.378 893.999 697.989 954.352 625.06C954.352 617.408 954.306 609.74 954.259 602.08V602.073V602.066V602.06C953.77 520.862 953.286 440.544 1007.84 388.486C1064.41 334.504 1184.59 312 1269.19 312C1363.58 312 1481.98 323.064 1539.69 388.486C1584.72 439.547 1584.37 531.271 1584.08 607.348V607.357V607.365V607.374C1584.05 613.376 1584.03 619.281 1584.03 625.06ZM2017.25 1936.5C2232.75 2249.06 1721.77 2249.06 1263.98 2249.06C806.191 2249.06 375.753 2238.51 526.753 1991.17C624.413 1831.2 650.48 1780.34 699.49 1684.7C726.259 1632.46 759.872 1566.87 815.733 1462.85C842.147 1413.67 869.276 1368.15 895.999 1323.31C958.079 1219.15 1017.97 1118.66 1061.64 984.368C1066.01 970.935 1087.61 959.473 1119.95 951.452C1114.26 963.592 1112.24 970.005 1125.57 990.309C1134.84 1004.43 1144.01 1009.43 1154.18 1014.96C1164.45 1020.56 1175.73 1026.7 1189.18 1043.36C1212.93 1033.17 1222.13 1025.5 1214.05 999.786C1208.97 983.643 1191.72 976.115 1173.67 968.236C1160.78 962.61 1147.48 956.806 1137.91 947.56C1143.68 946.472 1149.7 945.479 1155.94 944.588C1161.25 947.465 1166.55 949.178 1172.11 950.975C1184.04 954.83 1197.16 959.068 1214.1 976C1232.68 965.558 1241.38 955.101 1239.71 939.166C1255.33 939.206 1271.43 939.781 1287.79 940.944C1287.15 955.615 1295.88 965.564 1313.56 975.5C1330.51 958.568 1343.62 954.33 1355.55 950.475C1356.45 950.184 1357.35 949.895 1358.23 949.602C1364.98 950.799 1371.71 952.104 1378.42 953.524C1368.67 961.786 1355.35 966.459 1342.45 970.989C1323.92 977.491 1306.24 983.696 1301.18 999.786C1293.1 1025.5 1302.3 1033.17 1326.05 1043.36C1339.5 1026.7 1350.78 1020.56 1361.05 1014.96C1371.22 1009.43 1380.38 1004.43 1389.66 990.309C1402.03 971.458 1402.14 967.007 1398.05 958.034C1425.19 964.769 1451.56 973.465 1476.09 984.368C1554.36 1155.13 1801.75 1623.94 2017.25 1936.5ZM1164.98 1493.28C1173.06 1518.99 1163.86 1526.66 1140.11 1536.86C1126.66 1520.2 1115.38 1514.05 1105.11 1508.46C1094.94 1502.92 1085.78 1497.93 1076.5 1483.8C1062.01 1461.73 1066.19 1452.08 1073.21 1435.85C1075.22 1431.21 1077.45 1426.04 1079.56 1419.89C1087.41 1438.46 1106.51 1448.64 1124.82 1458.39C1142.73 1467.94 1159.89 1477.08 1164.98 1493.28ZM1154 1560.34C1162.09 1586.05 1152.88 1593.72 1129.13 1603.92C1115.69 1587.26 1104.4 1581.11 1094.13 1575.52C1083.97 1569.98 1074.8 1564.99 1065.53 1550.86C1051.03 1528.78 1055.21 1519.14 1062.23 1502.91C1064.24 1498.27 1066.48 1493.1 1068.58 1486.95C1076.44 1505.52 1095.53 1515.7 1113.84 1525.45C1131.75 1534.99 1148.91 1544.13 1154 1560.34ZM1194.99 1213.13C1203.09 1238.72 1193.89 1246.35 1170.14 1256.48C1156.69 1239.89 1145.4 1233.77 1135.13 1228.2C1124.96 1222.69 1115.79 1217.71 1106.51 1203.65C1092.01 1181.68 1096.18 1172.08 1103.19 1155.94C1105.2 1151.33 1107.43 1146.18 1109.53 1140.06C1117.4 1158.54 1136.5 1168.68 1154.81 1178.39C1172.73 1187.9 1189.89 1197 1194.99 1213.13ZM1184.05 1279.85C1192.14 1305.43 1182.95 1313.06 1159.2 1323.19C1145.75 1306.61 1134.46 1300.49 1124.19 1294.92C1114.02 1289.4 1104.85 1284.43 1095.57 1270.37C1081.07 1248.39 1085.24 1238.8 1092.25 1222.65C1094.25 1218.04 1096.49 1212.9 1098.59 1206.78C1106.46 1225.26 1125.56 1235.4 1143.87 1245.11C1161.79 1254.62 1178.94 1263.72 1184.05 1279.85ZM1129.73 1773.13C1137.83 1798.71 1133.84 1806.9 1110.1 1817.03C1096.65 1800.45 1085.36 1794.32 1075.09 1788.76C1064.92 1783.24 1055.75 1778.27 1046.47 1764.21C1031.96 1742.23 1036.13 1732.63 1043.15 1716.49C1045.15 1711.88 1047.39 1706.74 1049.49 1700.62C1057.34 1719.07 1075.08 1729.06 1092.04 1738.62C1108.7 1748.01 1124.62 1756.98 1129.73 1773.13ZM1115.37 1839.48C1123.46 1865.06 1122.9 1873.62 1099.16 1883.75C1085.77 1867.24 1075.46 1861.2 1066.17 1855.75C1056.88 1850.31 1048.6 1845.45 1039.28 1831.33C1025.19 1809.97 1028.44 1802.95 1034.95 1788.91C1037.05 1784.37 1039.49 1779.1 1041.8 1772.37C1049.66 1790.84 1065.73 1799.46 1081.03 1807.66C1096.01 1815.7 1110.26 1823.34 1115.37 1839.48ZM1210.04 1072.64C1218.12 1098.35 1208.92 1106.02 1185.17 1116.22C1171.72 1099.56 1160.44 1093.41 1150.17 1087.82C1140 1082.28 1130.84 1077.29 1121.56 1063.17C1107.07 1041.09 1111.24 1031.44 1118.27 1015.21C1120.27 1010.58 1122.51 1005.4 1124.61 999.253C1132.47 1017.82 1151.57 1028 1169.87 1037.75C1187.79 1047.3 1204.94 1056.44 1210.04 1072.64ZM1199.06 1139.7C1207.14 1165.41 1197.94 1173.08 1174.19 1183.28C1160.74 1166.62 1149.46 1160.47 1139.19 1154.88C1129.02 1149.34 1119.86 1144.35 1110.58 1130.22C1096.09 1108.14 1100.27 1098.5 1107.29 1082.27C1109.29 1077.63 1111.53 1072.46 1113.64 1066.31C1121.49 1084.88 1140.59 1095.06 1158.9 1104.81C1176.81 1114.35 1193.97 1123.49 1199.06 1139.7ZM1149.99 1633.2C1158.08 1658.91 1148.87 1666.58 1125.12 1676.77C1111.68 1660.11 1100.39 1653.97 1090.13 1648.37C1079.96 1642.84 1070.79 1637.84 1061.52 1623.72C1047.02 1601.64 1051.2 1591.99 1058.22 1575.76C1060.23 1571.13 1062.47 1565.96 1064.57 1559.81C1072.43 1578.38 1091.53 1588.55 1109.83 1598.3C1127.75 1607.85 1144.9 1616.99 1149.99 1633.2ZM1139.01 1700.25C1147.1 1725.97 1137.89 1733.64 1114.14 1743.83C1100.7 1727.17 1089.41 1721.02 1079.15 1715.43C1068.98 1709.89 1059.81 1704.9 1050.54 1690.78C1036.04 1668.7 1040.22 1659.05 1047.24 1642.82C1049.25 1638.19 1051.49 1633.02 1053.59 1626.87C1061.45 1645.43 1080.55 1655.61 1098.85 1665.36C1116.77 1674.91 1133.92 1684.05 1139.01 1700.25ZM1179.97 1353.37C1188.05 1379.08 1178.85 1386.75 1155.1 1396.94C1141.65 1380.28 1130.37 1374.14 1120.1 1368.55C1109.93 1363.01 1100.76 1358.02 1091.49 1343.89C1077 1321.81 1081.17 1312.16 1088.2 1295.94C1090.2 1291.3 1092.44 1286.13 1094.54 1279.98C1102.4 1298.55 1121.5 1308.72 1139.8 1318.48C1157.72 1328.02 1174.87 1337.16 1179.97 1353.37ZM1168.99 1420.43C1177.07 1446.14 1167.87 1453.81 1144.12 1464C1130.67 1447.34 1119.39 1441.2 1109.12 1435.6C1098.95 1430.07 1089.79 1425.07 1080.51 1410.95C1066.02 1388.87 1070.19 1379.22 1077.22 1362.99C1079.22 1358.36 1081.46 1353.19 1083.56 1347.04C1091.42 1365.6 1110.52 1375.78 1128.82 1385.53C1146.74 1395.08 1163.89 1404.22 1168.99 1420.43ZM1098.2 1953.03C1097.21 1954.43 1096.16 1955.91 1095.05 1957.5C1081.54 1940.77 1071.21 1935.6 1061.89 1930.93C1052.74 1926.36 1044.57 1922.27 1035.34 1908.21C1019.82 1884.57 1023.8 1874.23 1031.03 1855.45C1032.49 1851.68 1034.07 1847.56 1035.65 1842.92C1043.5 1861.47 1058.51 1869.87 1072.78 1877.85C1086.78 1885.68 1100.06 1893.11 1105.16 1909.34C1112.55 1932.82 1108.7 1938.25 1098.2 1953.03ZM1086.17 2020.62C1085.5 2021.86 1084.8 2023.16 1084.07 2024.56C1070.58 2007.85 1060.35 2002.72 1051.78 1998.43C1043.35 1994.21 1036.53 1990.79 1029.81 1977.92C1018.51 1956.28 1021.26 1947.82 1027.44 1928.78C1028.67 1924.99 1030.04 1920.77 1031.46 1915.96C1039.03 1933.85 1052.51 1941.47 1064.94 1948.51C1078.04 1955.93 1089.98 1962.69 1092.62 1980.11C1095.99 2002.35 1092.89 2008.12 1086.17 2020.62ZM1072.34 2077.45C1065.25 2086.56 1057.54 2096.47 1055.21 2109.46C1054.42 2097.97 1054.92 2090.59 1055.33 2084.46C1056.06 2073.52 1056.53 2066.51 1049.02 2047.11C1044.33 2034.98 1040.14 2028.8 1036.66 2023.66C1031.46 2015.97 1027.84 2010.62 1026.45 1991.17C1034.47 1996.97 1041.33 2001.14 1047.39 2004.84C1061.38 2013.36 1071.2 2019.35 1081.58 2036.84C1091.25 2053.14 1082.42 2064.49 1072.34 2077.45ZM1350.25 1493.28C1342.17 1518.99 1351.37 1526.66 1375.12 1536.86C1388.56 1520.2 1399.85 1514.05 1410.12 1508.46C1420.28 1502.92 1429.45 1497.93 1438.72 1483.8C1453.22 1461.73 1449.04 1452.08 1442.02 1435.85C1440.01 1431.21 1437.77 1426.04 1435.67 1419.89C1427.81 1438.46 1408.72 1448.64 1390.41 1458.39C1372.5 1467.94 1355.34 1477.08 1350.25 1493.28ZM1361.23 1560.34C1353.14 1586.05 1362.35 1593.72 1386.1 1603.92C1399.54 1587.26 1410.83 1581.11 1421.09 1575.52C1431.26 1569.98 1440.43 1564.99 1449.7 1550.86C1464.2 1528.78 1460.02 1519.14 1453 1502.91C1450.99 1498.27 1448.75 1493.1 1446.65 1486.95C1438.79 1505.52 1419.69 1515.7 1401.39 1525.45C1383.47 1534.99 1366.32 1544.13 1361.23 1560.34ZM1320.24 1213.13C1312.14 1238.72 1321.34 1246.35 1345.09 1256.48C1358.54 1239.89 1369.83 1233.77 1380.09 1228.2C1390.27 1222.69 1399.44 1217.71 1408.71 1203.65C1423.22 1181.68 1419.05 1172.08 1412.04 1155.94C1410.03 1151.33 1407.8 1146.18 1405.7 1140.06C1397.83 1158.54 1378.73 1168.68 1360.42 1178.39C1342.5 1187.9 1325.34 1197 1320.24 1213.13ZM1331.18 1279.85C1323.08 1305.43 1332.28 1313.06 1356.03 1323.19C1369.48 1306.61 1380.77 1300.49 1391.04 1294.92C1401.21 1289.4 1410.38 1284.43 1419.66 1270.37C1434.16 1248.39 1429.99 1238.8 1422.98 1222.65C1420.97 1218.04 1418.74 1212.9 1416.64 1206.78C1408.77 1225.26 1389.67 1235.4 1371.36 1245.11C1353.44 1254.62 1336.28 1263.72 1331.18 1279.85ZM1385.5 1773.13C1377.4 1798.71 1381.39 1806.9 1405.13 1817.03C1418.58 1800.45 1429.87 1794.32 1440.14 1788.76C1450.31 1783.24 1459.48 1778.27 1468.76 1764.21C1483.26 1742.23 1479.09 1732.63 1472.08 1716.49C1470.08 1711.88 1467.84 1706.74 1465.74 1700.62C1457.89 1719.07 1440.15 1729.06 1423.19 1738.62C1406.53 1748.01 1390.61 1756.98 1385.5 1773.13ZM1399.86 1839.48C1391.76 1865.06 1392.33 1873.62 1416.07 1883.75C1429.46 1867.24 1439.77 1861.2 1449.06 1855.75C1458.35 1850.31 1466.62 1845.45 1475.95 1831.33C1490.04 1809.97 1486.79 1802.95 1480.28 1788.91C1478.18 1784.37 1475.74 1779.1 1473.43 1772.37C1465.56 1790.84 1449.5 1799.46 1434.2 1807.66C1419.22 1815.7 1404.96 1823.34 1399.86 1839.48ZM1305.19 1072.64C1297.11 1098.35 1306.31 1106.02 1330.06 1116.22C1343.51 1099.56 1354.79 1093.41 1365.06 1087.82C1375.23 1082.28 1384.39 1077.29 1393.67 1063.16C1408.16 1041.09 1403.98 1031.44 1396.96 1015.21C1394.96 1010.58 1392.72 1005.4 1390.62 999.253C1382.76 1017.82 1363.66 1028 1345.35 1037.75C1327.44 1047.3 1310.29 1056.44 1305.19 1072.64ZM1316.17 1139.7C1308.09 1165.41 1317.29 1173.08 1341.04 1183.28C1354.48 1166.62 1365.77 1160.47 1376.04 1154.88C1386.2 1149.34 1395.37 1144.35 1404.64 1130.22C1419.14 1108.14 1414.96 1098.5 1407.94 1082.27C1405.93 1077.63 1403.7 1072.46 1401.59 1066.31C1393.74 1084.88 1374.64 1095.06 1356.33 1104.81C1338.42 1114.35 1321.26 1123.49 1316.17 1139.7ZM1365.24 1633.2C1357.15 1658.91 1366.36 1666.58 1390.11 1676.77C1403.55 1660.11 1414.84 1653.97 1425.1 1648.37C1435.27 1642.84 1444.44 1637.84 1453.71 1623.72C1468.21 1601.64 1464.03 1591.99 1457.01 1575.76C1455 1571.13 1452.76 1565.96 1450.66 1559.81C1442.8 1578.38 1423.7 1588.55 1405.4 1598.3C1387.48 1607.85 1370.33 1616.99 1365.24 1633.2ZM1376.21 1700.25C1368.13 1725.97 1377.33 1733.64 1401.09 1743.83C1414.53 1727.17 1425.82 1721.02 1436.08 1715.43C1446.25 1709.89 1455.42 1704.9 1464.69 1690.78C1479.18 1668.7 1475.01 1659.05 1467.98 1642.82C1465.98 1638.19 1463.74 1633.02 1461.64 1626.87C1453.78 1645.43 1434.68 1655.61 1416.38 1665.36C1398.46 1674.91 1381.31 1684.05 1376.21 1700.25ZM1335.26 1353.37C1327.18 1379.08 1336.38 1386.75 1360.13 1396.94C1373.58 1380.28 1384.86 1374.14 1395.13 1368.55C1405.3 1363.01 1414.46 1358.02 1423.74 1343.89C1438.23 1321.81 1434.06 1312.16 1427.03 1295.94C1425.03 1291.3 1422.79 1286.13 1420.69 1279.98C1412.83 1298.55 1393.73 1308.72 1375.43 1318.48C1357.51 1328.02 1340.36 1337.16 1335.26 1353.37ZM1346.24 1420.43C1338.16 1446.14 1347.36 1453.81 1371.11 1464C1384.56 1447.34 1395.84 1441.2 1406.11 1435.6C1416.28 1430.07 1425.44 1425.07 1434.71 1410.95C1449.21 1388.87 1445.03 1379.22 1438.01 1362.99C1436 1358.36 1433.77 1353.19 1431.66 1347.04C1423.81 1365.6 1404.71 1375.78 1386.4 1385.53C1368.49 1395.08 1351.33 1404.22 1346.24 1420.43ZM1417.03 1953.03C1418.02 1954.43 1419.07 1955.91 1420.18 1957.5C1433.68 1940.77 1444.02 1935.6 1453.34 1930.93C1462.49 1926.36 1470.66 1922.27 1479.89 1908.21C1495.4 1884.57 1491.42 1874.23 1484.2 1855.45C1482.74 1851.68 1481.16 1847.56 1479.57 1842.92C1471.72 1861.47 1456.71 1869.87 1442.45 1877.85C1428.45 1885.68 1415.16 1893.11 1410.06 1909.34C1402.68 1932.82 1406.53 1938.25 1417.03 1953.03ZM1429.06 2020.62C1429.72 2021.86 1430.43 2023.16 1431.16 2024.56C1444.64 2007.85 1454.88 2002.72 1463.44 1998.43C1471.88 1994.21 1478.7 1990.79 1485.42 1977.92C1496.71 1956.28 1493.97 1947.82 1487.79 1928.78C1486.56 1924.99 1485.19 1920.77 1483.77 1915.96C1476.2 1933.85 1462.72 1941.47 1450.29 1948.51C1437.19 1955.93 1425.24 1962.69 1422.6 1980.11C1419.24 2002.35 1422.34 2008.12 1429.06 2020.62ZM1442.89 2077.45C1449.98 2086.56 1457.69 2096.47 1460.02 2109.46C1460.8 2097.97 1460.31 2090.59 1459.9 2084.46C1459.17 2073.52 1458.7 2066.51 1466.2 2047.11C1470.9 2034.98 1475.08 2028.8 1478.56 2023.66C1483.77 2015.97 1487.39 2010.62 1488.78 1991.17C1480.75 1996.97 1473.9 2001.14 1467.84 2004.84C1453.85 2013.36 1444.03 2019.35 1433.65 2036.84C1423.98 2053.14 1432.81 2064.49 1442.89 2077.45Z" fill="#1C1C13"/>
</svg>
